<svg width="560" height="168" viewBox="0 0 560 168" fill="none" xmlns="http://www.w3.org/2000/svg">
<g clip-path="url(#clip0_364_1757)">
<path d="M109.436 156.323C109.436 157.177 109.272 157.933 108.946 158.586C108.619 159.239 108.199 159.785 107.686 160.219C107.172 160.654 106.598 160.987 105.959 161.211C105.32 161.436 104.69 161.549 104.069 161.549H100.196V167.709H98.1191V151.026H104.022C104.644 151.026 105.274 151.122 105.912 151.318C106.551 151.513 107.129 151.822 107.651 152.251C108.173 152.68 108.599 153.228 108.934 153.896C109.27 154.564 109.436 155.375 109.436 156.323ZM107.476 156.346C107.476 155.772 107.374 155.273 107.172 154.853C106.971 154.433 106.715 154.083 106.402 153.803C106.09 153.523 105.735 153.316 105.329 153.184C104.924 153.053 104.527 152.986 104.139 152.986H100.196V159.706H103.976C104.364 159.706 104.766 159.633 105.177 159.484C105.589 159.336 105.968 159.12 106.309 158.831C106.65 158.542 106.93 158.189 107.149 157.769C107.368 157.349 107.476 156.874 107.476 156.346Z" fill="#FFF9EB"/>
<path d="M111.816 167.709V151.049H122.97V152.846H113.893V158.399H121.266V160.196H113.893V165.866H123.226V167.709H111.816Z" fill="#FFF9EB"/>
<path d="M135.593 167.709C134.738 166.511 133.96 165.432 133.26 164.466C132.948 164.046 132.644 163.635 132.35 163.229C132.055 162.824 131.781 162.448 131.533 162.098C131.285 161.748 131.069 161.453 130.891 161.211C130.713 160.969 130.591 160.803 130.53 160.709H127.893V167.709H125.84L125.816 151.026H132.583C133.204 151.026 133.805 151.131 134.38 151.341C134.954 151.551 135.465 151.863 135.908 152.274C136.351 152.686 136.704 153.187 136.97 153.779C137.235 154.372 137.366 155.048 137.366 155.809C137.366 156.477 137.238 157.102 136.981 157.676C136.725 158.251 136.386 158.752 135.966 159.181C135.546 159.61 135.065 159.951 134.52 160.208C133.974 160.464 133.414 160.607 132.84 160.639L133.05 160.803L137.74 167.476V167.709H135.593ZM135.43 155.833C135.43 155.366 135.345 154.946 135.173 154.573C135.001 154.199 134.776 153.884 134.496 153.628C134.216 153.371 133.893 153.173 133.528 153.033C133.163 152.893 132.784 152.823 132.396 152.823H127.893V158.866H132.42C132.793 158.866 133.163 158.787 133.528 158.633C133.893 158.478 134.216 158.262 134.496 157.991C134.776 157.72 135.001 157.399 135.173 157.034C135.345 156.67 135.43 156.267 135.43 155.833Z" fill="#FFF9EB"/>
<path d="M152.019 162.879C152.019 163.891 151.788 164.72 151.33 165.364C150.872 166.009 150.304 166.519 149.627 166.893C148.95 167.266 148.236 167.526 147.48 167.674C146.725 167.823 146.054 167.896 145.462 167.896C144.389 167.896 143.371 167.724 142.405 167.383C141.44 167.041 140.501 166.543 139.582 165.889L140.422 164.233C141.277 164.793 142.117 165.233 142.942 165.551C143.767 165.869 144.567 166.029 145.345 166.029C145.827 166.029 146.346 165.974 146.897 165.866C147.448 165.758 147.959 165.577 148.425 165.329C148.892 165.081 149.277 164.758 149.58 164.361C149.884 163.964 150.035 163.471 150.035 162.879C150.035 162.413 149.93 162.028 149.72 161.724C149.51 161.421 149.233 161.173 148.892 160.978C148.551 160.782 148.169 160.631 147.749 160.523C147.329 160.415 146.909 160.321 146.489 160.243C146.223 160.211 145.975 160.176 145.742 160.138C145.509 160.1 145.284 160.047 145.065 159.986C144.412 159.878 143.759 159.721 143.105 159.519C142.452 159.318 141.866 159.041 141.344 158.691C140.822 158.341 140.399 157.906 140.072 157.384C139.745 156.862 139.582 156.229 139.582 155.483C139.582 154.549 139.783 153.779 140.189 153.173C140.594 152.566 141.107 152.079 141.729 151.714C142.35 151.35 143.027 151.093 143.759 150.944C144.491 150.796 145.173 150.723 145.812 150.723C146.885 150.723 147.932 150.909 148.95 151.283C149.968 151.656 150.89 152.193 151.715 152.893L150.712 154.433C149.187 153.187 147.553 152.566 145.812 152.566C144.505 152.566 143.47 152.831 142.709 153.359C141.947 153.887 141.565 154.581 141.565 155.436C141.565 155.795 141.662 156.098 141.857 156.346C142.052 156.594 142.3 156.81 142.604 156.988C142.907 157.166 143.234 157.317 143.584 157.443C143.934 157.568 144.263 157.676 144.575 157.769C144.855 157.848 145.159 157.918 145.485 157.979C145.812 158.041 146.13 158.105 146.442 158.166C146.83 158.245 147.209 158.321 147.574 158.399C147.938 158.478 148.277 158.563 148.589 158.656C149.023 158.796 149.449 158.974 149.86 159.193C150.272 159.411 150.639 159.683 150.957 160.009C151.275 160.336 151.532 160.733 151.727 161.199C151.922 161.666 152.019 162.226 152.019 162.879Z" fill="#FFF9EB"/>
<path d="M170.756 159.379C170.756 160.672 170.526 161.844 170.068 162.903C169.61 163.962 168.995 164.866 168.222 165.621C167.452 166.377 166.559 166.96 165.547 167.371C164.535 167.782 163.482 167.989 162.394 167.989C161.306 167.989 160.256 167.779 159.25 167.359C158.244 166.939 157.357 166.353 156.587 165.598C155.817 164.842 155.202 163.938 154.741 162.879C154.283 161.821 154.053 160.648 154.053 159.356C154.053 158.064 154.283 156.862 154.741 155.798C155.202 154.733 155.817 153.823 156.587 153.068C157.357 152.312 158.247 151.729 159.25 151.318C160.256 150.907 161.304 150.699 162.394 150.699C163.485 150.699 164.535 150.912 165.547 151.341C166.559 151.77 167.452 152.365 168.222 153.126C168.992 153.887 169.607 154.803 170.068 155.868C170.529 156.932 170.756 158.105 170.756 159.379ZM168.726 159.379C168.726 158.446 168.566 157.568 168.248 156.743C167.93 155.917 167.487 155.2 166.918 154.584C166.349 153.969 165.679 153.485 164.9 153.126C164.121 152.767 163.281 152.589 162.38 152.589C161.479 152.589 160.639 152.767 159.86 153.126C159.081 153.485 158.41 153.969 157.841 154.584C157.273 155.2 156.829 155.917 156.511 156.743C156.194 157.568 156.033 158.446 156.033 159.379C156.033 160.313 156.194 161.188 156.511 162.004C156.829 162.821 157.273 163.533 157.841 164.139C158.41 164.746 159.081 165.224 159.86 165.574C160.639 165.924 161.479 166.099 162.38 166.099C163.281 166.099 164.121 165.924 164.9 165.574C165.679 165.224 166.349 164.746 166.918 164.139C167.487 163.533 167.93 162.821 168.248 162.004C168.566 161.188 168.726 160.313 168.726 159.379Z" fill="#FFF9EB"/>
<path d="M184.774 167.733L175.167 155.063V167.709H173.137V151.026H174.7L184.057 163.416V151.026H186.087V167.733H184.774Z" fill="#FFF9EB"/>
<path d="M200.76 167.71L199.267 163.743H191.777C191.529 164.396 191.278 165.058 191.03 165.726C190.782 166.394 190.526 167.056 190.26 167.71H188.184L194.74 150.979H196.444L202.884 167.71H200.76ZM195.51 154.083L192.454 161.946H198.59L195.51 154.083Z" fill="#FFF9EB"/>
<path d="M204.865 167.709V151.026H206.942V165.796H216.065V167.709H204.865Z" fill="#FFF9EB"/>
<path d="M219.426 167.709V151.026H221.456V167.709H219.426Z" fill="#FFF9EB"/>
<path d="M227.079 165.843H236.623V167.709H224.279L224.303 166.379L234.336 152.846H224.583V151.026H236.996V152.426L227.079 165.843Z" fill="#FFF9EB"/>
<path d="M250.762 167.71L249.269 163.743H241.779C241.531 164.396 241.28 165.058 241.032 165.726C240.784 166.394 240.528 167.056 240.262 167.71H238.186L244.742 150.979H246.446L252.886 167.71H250.762ZM245.512 154.083L242.456 161.946H248.592L245.512 154.083Z" fill="#FFF9EB"/>
<path d="M268.542 159.403C268.542 160.788 268.312 161.996 267.854 163.031C267.396 164.066 266.795 164.93 266.057 165.621C265.32 166.312 264.491 166.834 263.572 167.184C262.654 167.534 261.744 167.709 260.842 167.709H254.869V151.049H261.122C262.009 151.049 262.896 151.224 263.782 151.574C264.669 151.924 265.462 152.449 266.162 153.149C266.862 153.849 267.434 154.721 267.877 155.763C268.321 156.804 268.542 158.017 268.542 159.403ZM266.582 159.426C266.582 158.306 266.419 157.335 266.092 156.509C265.766 155.684 265.331 155.001 264.795 154.456C264.255 153.911 263.637 153.502 262.934 153.231C262.231 152.96 261.507 152.823 260.758 152.823H256.899V165.913H260.711C261.382 165.913 262.067 165.776 262.77 165.504C263.473 165.233 264.103 164.828 264.666 164.291C265.229 163.754 265.687 163.078 266.046 162.261C266.405 161.444 266.582 160.499 266.582 159.426Z" fill="#FFF9EB"/>
<path d="M287.001 159.379C287.001 160.672 286.77 161.844 286.312 162.903C285.851 163.962 285.236 164.866 284.466 165.621C283.696 166.377 282.804 166.96 281.791 167.371C280.779 167.782 279.726 167.989 278.639 167.989C277.551 167.989 276.501 167.779 275.494 167.359C274.488 166.939 273.601 166.353 272.831 165.598C272.061 164.842 271.446 163.938 270.985 162.879C270.527 161.821 270.297 160.648 270.297 159.356C270.297 158.064 270.527 156.862 270.985 155.798C271.446 154.733 272.061 153.823 272.831 153.068C273.601 152.312 274.491 151.729 275.494 151.318C276.501 150.907 277.548 150.699 278.639 150.699C279.729 150.699 280.779 150.912 281.791 151.341C282.804 151.77 283.696 152.365 284.466 153.126C285.236 153.887 285.851 154.803 286.312 155.868C286.77 156.932 287.001 158.105 287.001 159.379ZM284.971 159.379C284.971 158.446 284.81 157.568 284.492 156.743C284.174 155.917 283.731 155.2 283.162 154.584C282.594 153.969 281.923 153.485 281.144 153.126C280.365 152.767 279.525 152.589 278.624 152.589C277.723 152.589 276.883 152.767 276.104 153.126C275.325 153.485 274.654 153.969 274.086 154.584C273.517 155.2 273.074 155.917 272.756 156.743C272.438 157.568 272.277 158.446 272.277 159.379C272.277 160.313 272.438 161.188 272.756 162.004C273.074 162.821 273.517 163.533 274.086 164.139C274.654 164.746 275.325 165.224 276.104 165.574C276.883 165.924 277.723 166.099 278.624 166.099C279.525 166.099 280.365 165.924 281.144 165.574C281.923 165.224 282.594 164.746 283.162 164.139C283.731 163.533 284.174 162.821 284.492 162.004C284.81 161.188 284.971 160.313 284.971 159.379Z" fill="#FFF9EB"/>
<path d="M301.069 162.879C301.069 163.891 300.839 164.72 300.381 165.364C299.923 166.009 299.354 166.519 298.678 166.893C298.001 167.266 297.287 167.526 296.531 167.674C295.776 167.823 295.105 167.896 294.513 167.896C293.439 167.896 292.422 167.724 291.456 167.383C290.491 167.041 289.552 166.543 288.633 165.889L289.473 164.233C290.327 164.793 291.167 165.233 291.993 165.551C292.818 165.869 293.617 166.029 294.396 166.029C294.877 166.029 295.397 165.974 295.948 165.866C296.499 165.758 297.009 165.577 297.476 165.329C297.943 165.081 298.328 164.758 298.631 164.361C298.934 163.964 299.086 163.471 299.086 162.879C299.086 162.413 298.981 162.028 298.771 161.724C298.561 161.421 298.284 161.173 297.943 160.978C297.602 160.782 297.219 160.631 296.799 160.523C296.379 160.415 295.959 160.321 295.539 160.243C295.274 160.211 295.026 160.176 294.793 160.138C294.559 160.1 294.335 160.047 294.116 159.986C293.463 159.878 292.809 159.721 292.156 159.519C291.503 159.318 290.917 159.041 290.394 158.691C289.872 158.341 289.449 157.906 289.123 157.384C288.796 156.862 288.633 156.229 288.633 155.483C288.633 154.549 288.834 153.779 289.239 153.173C289.645 152.566 290.158 152.079 290.779 151.714C291.401 151.35 292.077 151.093 292.809 150.944C293.542 150.796 294.224 150.723 294.863 150.723C295.936 150.723 296.983 150.909 298.001 151.283C299.019 151.656 299.941 152.193 300.766 152.893L299.763 154.433C298.237 153.187 296.604 152.566 294.863 152.566C293.556 152.566 292.521 152.831 291.759 153.359C290.998 153.887 290.616 154.581 290.616 155.436C290.616 155.795 290.712 156.098 290.908 156.346C291.103 156.594 291.351 156.81 291.654 156.988C291.958 157.166 292.284 157.317 292.634 157.443C292.984 157.568 293.314 157.676 293.626 157.769C293.906 157.848 294.209 157.918 294.536 157.979C294.863 158.041 295.181 158.105 295.493 158.166C295.881 158.245 296.26 158.321 296.624 158.399C296.989 158.478 297.327 158.563 297.639 158.656C298.074 158.796 298.5 158.974 298.911 159.193C299.322 159.411 299.69 159.683 300.008 160.009C300.326 160.336 300.582 160.733 300.778 161.199C300.973 161.666 301.069 162.226 301.069 162.879Z" fill="#FFF9EB"/>
<path d="M322.746 167.896L321.556 166.589C321.37 166.371 321.192 166.161 321.02 165.959C320.848 165.758 320.655 165.548 320.436 165.329C319.798 166.108 319.095 166.732 318.325 167.208C317.555 167.683 316.703 167.919 315.77 167.919C315.102 167.919 314.428 167.849 313.751 167.709C313.075 167.569 312.468 167.316 311.931 166.951C311.395 166.586 310.96 166.088 310.625 165.458C310.289 164.828 310.123 164.031 310.123 163.066C310.123 162.445 310.243 161.879 310.485 161.374C310.727 160.87 311.033 160.409 311.406 159.998C311.78 159.586 312.191 159.219 312.643 158.901C313.095 158.583 313.521 158.291 313.926 158.026C313.708 157.793 313.474 157.527 313.226 157.233C312.978 156.938 312.748 156.626 312.538 156.299C312.328 155.973 312.153 155.626 312.013 155.261C311.873 154.896 311.803 154.526 311.803 154.153C311.803 153.514 311.946 152.977 312.235 152.543C312.523 152.108 312.879 151.761 313.308 151.504C313.737 151.248 314.198 151.064 314.696 150.956C315.195 150.848 315.653 150.793 316.073 150.793C316.493 150.793 316.968 150.854 317.45 150.979C317.931 151.105 318.374 151.306 318.78 151.586C319.185 151.866 319.523 152.225 319.795 152.659C320.066 153.094 320.203 153.616 320.203 154.223C320.203 154.768 320.086 155.258 319.853 155.693C319.62 156.127 319.328 156.521 318.978 156.871C318.628 157.221 318.246 157.527 317.835 157.793C317.423 158.058 317.038 158.297 316.68 158.516L320.366 162.599C320.708 162.118 321.043 161.581 321.37 160.989C321.696 160.397 321.985 159.767 322.233 159.099L323.726 159.963C323.461 160.663 323.128 161.348 322.723 162.016C322.318 162.684 321.915 163.314 321.51 163.906C321.991 164.451 322.481 165 322.98 165.551C323.478 166.102 323.96 166.651 324.426 167.196L324.496 167.406L322.746 167.896ZM317.356 161.876C316.983 161.456 316.618 161.039 316.26 160.628C315.901 160.216 315.528 159.808 315.14 159.403C314.86 159.575 314.545 159.779 314.195 160.021C313.845 160.263 313.509 160.537 313.191 160.849C312.873 161.161 312.608 161.503 312.398 161.876C312.188 162.249 312.083 162.661 312.083 163.113C312.083 163.734 312.2 164.244 312.433 164.641C312.666 165.038 312.967 165.353 313.331 165.586C313.696 165.819 314.101 165.983 314.545 166.076C314.988 166.169 315.411 166.216 315.816 166.216C316.484 166.216 317.114 165.991 317.706 165.539C318.298 165.087 318.826 164.574 319.293 163.999L317.356 161.876ZM318.336 154.223C318.336 153.881 318.258 153.593 318.103 153.359C317.948 153.126 317.756 152.931 317.531 152.776C317.307 152.621 317.065 152.508 316.808 152.438C316.551 152.368 316.315 152.333 316.096 152.333C315.863 152.333 315.606 152.365 315.326 152.426C315.046 152.487 314.787 152.592 314.545 152.741C314.303 152.89 314.104 153.088 313.95 153.336C313.795 153.584 313.716 153.905 313.716 154.293C313.716 154.526 313.766 154.762 313.868 155.004C313.97 155.246 314.098 155.48 314.253 155.704C314.408 155.929 314.58 156.148 314.766 156.358C314.953 156.568 315.131 156.766 315.303 156.953L315.56 157.233L315.84 157.046C316.073 156.891 316.333 156.716 316.621 156.521C316.91 156.326 317.181 156.11 317.438 155.868C317.695 155.626 317.908 155.369 318.08 155.098C318.252 154.826 318.336 154.535 318.336 154.223Z" fill="#FFF9EB"/>
<path d="M344.959 156.323C344.959 157.177 344.796 157.933 344.469 158.586C344.143 159.239 343.723 159.785 343.209 160.219C342.696 160.654 342.121 160.987 341.483 161.211C340.844 161.436 340.214 161.549 339.593 161.549H335.719V167.709H333.643V151.026H339.546C340.167 151.026 340.797 151.122 341.436 151.318C342.075 151.513 342.652 151.822 343.174 152.251C343.696 152.68 344.122 153.228 344.458 153.896C344.793 154.564 344.959 155.375 344.959 156.323ZM342.999 156.346C342.999 155.772 342.897 155.273 342.696 154.853C342.495 154.433 342.238 154.083 341.926 153.803C341.614 153.523 341.258 153.316 340.853 153.184C340.447 153.053 340.05 152.986 339.663 152.986H335.719V159.706H339.499C339.887 159.706 340.29 159.633 340.701 159.484C341.112 159.336 341.491 159.12 341.833 158.831C342.174 158.542 342.454 158.189 342.673 157.769C342.891 157.349 342.999 156.874 342.999 156.346Z" fill="#FFF9EB"/>
<path d="M357.117 167.709C356.262 166.511 355.483 165.432 354.783 164.466C354.471 164.046 354.168 163.635 353.873 163.229C353.579 162.824 353.304 162.448 353.057 162.098C352.809 161.748 352.593 161.453 352.415 161.211C352.237 160.969 352.114 160.803 352.053 160.709H349.417V167.709H347.363L347.34 151.026H354.106C354.728 151.026 355.329 151.131 355.903 151.341C356.478 151.551 356.988 151.863 357.432 152.274C357.875 152.686 358.228 153.187 358.493 153.779C358.759 154.372 358.89 155.048 358.89 155.809C358.89 156.477 358.762 157.102 358.505 157.676C358.248 158.251 357.91 158.752 357.49 159.181C357.07 159.61 356.589 159.951 356.043 160.208C355.498 160.464 354.938 160.607 354.363 160.639L354.573 160.803L359.263 167.476V167.709H357.117ZM356.953 155.833C356.953 155.366 356.869 154.946 356.696 154.573C356.524 154.199 356.3 153.884 356.02 153.628C355.74 153.371 355.416 153.173 355.051 153.033C354.687 152.893 354.308 152.823 353.92 152.823H349.417V158.866H353.943C354.317 158.866 354.687 158.787 355.051 158.633C355.416 158.478 355.74 158.262 356.02 157.991C356.3 157.72 356.524 157.399 356.696 157.034C356.869 156.67 356.953 156.267 356.953 155.833Z" fill="#FFF9EB"/>
<path d="M361.666 167.709V151.049H372.819V152.846H363.743V158.399H371.116V160.196H363.743V165.866H373.076V167.709H361.666Z" fill="#FFF9EB"/>
<path d="M387.542 162.879C387.542 163.891 387.312 164.72 386.854 165.364C386.396 166.009 385.827 166.519 385.15 166.893C384.474 167.266 383.759 167.526 383.004 167.674C382.248 167.823 381.578 167.896 380.985 167.896C379.912 167.896 378.894 167.724 377.929 167.383C376.963 167.041 376.024 166.543 375.105 165.889L375.945 164.233C376.8 164.793 377.64 165.233 378.465 165.551C379.291 165.869 380.09 166.029 380.869 166.029C381.35 166.029 381.869 165.974 382.42 165.866C382.972 165.758 383.482 165.577 383.949 165.329C384.415 165.081 384.8 164.758 385.104 164.361C385.407 163.964 385.559 163.471 385.559 162.879C385.559 162.413 385.454 162.028 385.244 161.724C385.034 161.421 384.757 161.173 384.415 160.978C384.074 160.782 383.692 160.631 383.272 160.523C382.852 160.415 382.432 160.321 382.012 160.243C381.747 160.211 381.499 160.176 381.265 160.138C381.032 160.1 380.808 160.047 380.589 159.986C379.935 159.878 379.282 159.721 378.629 159.519C377.975 159.318 377.389 159.041 376.867 158.691C376.345 158.341 375.922 157.906 375.595 157.384C375.269 156.862 375.105 156.229 375.105 155.483C375.105 154.549 375.307 153.779 375.712 153.173C376.118 152.566 376.631 152.079 377.252 151.714C377.873 151.35 378.55 151.093 379.282 150.944C380.014 150.796 380.697 150.723 381.335 150.723C382.409 150.723 383.456 150.909 384.474 151.283C385.492 151.656 386.413 152.193 387.239 152.893L386.235 154.433C384.71 153.187 383.077 152.566 381.335 152.566C380.029 152.566 378.993 152.831 378.232 153.359C377.471 153.887 377.089 154.581 377.089 155.436C377.089 155.795 377.185 156.098 377.38 156.346C377.576 156.594 377.824 156.81 378.127 156.988C378.43 157.166 378.757 157.317 379.107 157.443C379.457 157.568 379.787 157.676 380.099 157.769C380.379 157.848 380.682 157.918 381.009 157.979C381.335 158.041 381.653 158.105 381.965 158.166C382.353 158.245 382.733 158.321 383.097 158.399C383.462 158.478 383.8 158.563 384.112 158.656C384.547 158.796 384.973 158.974 385.384 159.193C385.795 159.411 386.163 159.683 386.48 160.009C386.798 160.336 387.055 160.733 387.25 161.199C387.446 161.666 387.542 162.226 387.542 162.879Z" fill="#FFF9EB"/>
<path d="M390.227 167.709V151.049H401.38V152.846H392.303V158.399H399.677V160.196H392.303V165.866H401.637V167.709H390.227Z" fill="#FFF9EB"/>
<path d="M415.864 167.733L406.257 155.063V167.709H404.227V151.026H405.79L415.147 163.416V151.026H417.177V167.733H415.864Z" fill="#FFF9EB"/>
<path d="M427.629 152.846V167.709H425.553V152.846H419.416V151.026H433.696V152.846H427.629Z" fill="#FFF9EB"/>
<path d="M436.004 167.709V151.049H447.157V152.846H438.081V158.399H445.454V160.196H438.081V165.866H447.414V167.709H436.004Z" fill="#FFF9EB"/>
<path d="M461.88 162.879C461.88 163.891 461.65 164.72 461.192 165.364C460.734 166.009 460.165 166.519 459.488 166.893C458.812 167.266 458.097 167.526 457.342 167.674C456.586 167.823 455.915 167.896 455.323 167.896C454.25 167.896 453.232 167.724 452.267 167.383C451.301 167.041 450.362 166.543 449.443 165.889L450.283 164.233C451.138 164.793 451.978 165.233 452.803 165.551C453.629 165.869 454.428 166.029 455.207 166.029C455.688 166.029 456.207 165.974 456.758 165.866C457.31 165.758 457.82 165.577 458.287 165.329C458.753 165.081 459.138 164.758 459.442 164.361C459.745 163.964 459.897 163.471 459.897 162.879C459.897 162.413 459.792 162.028 459.582 161.724C459.372 161.421 459.095 161.173 458.753 160.978C458.412 160.782 458.03 160.631 457.61 160.523C457.19 160.415 456.77 160.321 456.35 160.243C456.085 160.211 455.837 160.176 455.603 160.138C455.37 160.1 455.145 160.047 454.927 159.986C454.273 159.878 453.62 159.721 452.967 159.519C452.313 159.318 451.727 159.041 451.205 158.691C450.683 158.341 450.26 157.906 449.933 157.384C449.607 156.862 449.443 156.229 449.443 155.483C449.443 154.549 449.645 153.779 450.05 153.173C450.455 152.566 450.969 152.079 451.59 151.714C452.211 151.35 452.888 151.093 453.62 150.944C454.352 150.796 455.035 150.723 455.673 150.723C456.747 150.723 457.794 150.909 458.812 151.283C459.83 151.656 460.751 152.193 461.577 152.893L460.573 154.433C459.048 153.187 457.415 152.566 455.673 152.566C454.367 152.566 453.331 152.831 452.57 153.359C451.809 153.887 451.427 154.581 451.427 155.436C451.427 155.795 451.523 156.098 451.718 156.346C451.914 156.594 452.162 156.81 452.465 156.988C452.768 157.166 453.095 157.317 453.445 157.443C453.795 157.568 454.125 157.676 454.437 157.769C454.717 157.848 455.02 157.918 455.347 157.979C455.673 158.041 455.991 158.105 456.303 158.166C456.691 158.245 457.07 158.321 457.435 158.399C457.8 158.478 458.138 158.563 458.45 158.656C458.885 158.796 459.31 158.974 459.722 159.193C460.133 159.411 460.5 159.683 460.818 160.009C461.136 160.336 461.393 160.733 461.588 161.199C461.784 161.666 461.88 162.226 461.88 162.879Z" fill="#FFF9EB"/>
<path d="M104.817 115.551C104.768 116.251 104.642 116.931 104.45 117.578H143.302C132.435 109.98 128.603 99.6201 124.373 87.2155L98.9546 12.5897C96.6796 5.90762 95.0988 2.46887 100.229 -0.824043C100.535 -1.01946 100.392 -1.49487 100.031 -1.49487H83.3388C78.08 -1.49487 74.1017 2.54762 73.6233 7.29304L56.3946 56.5818C56.2663 56.9493 56.6629 57.2789 57.0012 57.0834L65.7542 52.0114C66.2442 51.7285 66.6117 51.2734 66.7896 50.7397L77.1321 19.5168L86.8679 46.4726C66.145 55.2635 40.665 68.3534 38.1013 87.3672C36.7013 97.7359 41.0996 108.431 51.2525 113.921C55.1667 116.038 59.5592 117.123 64.01 117.17L66.8013 117.199C66.7692 117.117 66.8217 117.009 66.9325 117.015C79.9758 117.701 88.8221 115.207 91.2342 102.108C92.0246 97.8059 91.7417 93.4484 88.9329 90.6251C88.65 90.3393 88.3438 90.0709 88.0054 89.8201C82.0758 85.3809 74.1833 89.3243 73.7429 96.1901C73.6671 97.3509 73.8275 98.4826 74.1804 99.5384C75.2392 102.715 78.0567 105.182 81.5508 105.626C81.7404 105.649 81.93 105.666 82.1167 105.678C84.5463 105.836 86.8125 105.016 88.5275 103.552C82.21 115.236 65.5004 116.015 58.6346 105.214C57.3717 103.228 56.4413 100.851 55.9688 98.0743C55.6479 96.1755 55.54 94.093 55.6858 91.8268C55.7179 91.3105 55.7675 90.7943 55.8317 90.2809C55.8317 90.2809 55.8317 90.2809 55.8317 90.278C56.1613 87.6239 56.8846 84.9784 57.9346 82.3972C59.9529 77.433 63.1817 72.7168 67.1279 68.6422C73.3958 62.1614 81.4808 57.2964 89.4229 55.6368C89.6912 55.5784 89.9625 55.7447 90.0296 56.013L90.6129 56.923C100.792 72.8539 105.599 91.6314 104.327 110.496C104.768 112.173 104.922 113.83 104.817 115.463C104.814 115.496 104.811 115.528 104.811 115.56L104.817 115.551Z" fill="#FFF9EB"/>
<path d="M191.851 91.3717C188.806 109.009 163.2 119.585 161.445 89.2076V37.5942C152.607 37.5942 141.282 46.5834 133.057 46.5834C136.367 49.8967 137.236 54.823 137.236 62.6513C137.216 71.9759 137.242 81.3005 137.137 90.6251C137.137 119.558 171.291 125.24 186.111 107.483C188.718 104.363 191.372 100.157 191.848 97.8147V103.969C191.848 111.482 197.938 117.575 205.451 117.578L216.059 117.584C216.059 105.249 216.059 67.9247 216.059 48.1642H205.457C197.941 48.1642 191.848 54.2572 191.848 61.7763L191.854 91.3805L191.851 91.3717Z" fill="#FFF9EB"/>
<path d="M227.094 111.92C227.251 94.9418 227.852 58.2327 226.814 47.6656C226.102 45.1193 224.384 43.1856 221.628 42.9085C218.501 42.5906 218.527 37.6906 221.695 37.5768H222.876C231.101 37.5768 243.144 27.9343 251.984 27.9343C251.034 29.5822 250.949 32.2539 251.325 33.6743C251.949 36.0485 254.729 37.5739 257.517 37.5739H260.813C264.354 37.5739 264.348 42.9231 260.813 42.9231H251.261V87.2068C251.261 99.0048 250.899 111.31 261.752 117.578H232.696C229.581 117.578 227.061 115.038 227.091 111.92H227.094Z" fill="#FFF9EB"/>
<path d="M337.432 78.0571C337.432 102.89 323.505 117.578 298.072 117.578C272.639 117.578 256.895 103.213 256.895 78.0571C256.895 51.4687 271.787 37.2995 297.162 37.597C322.54 37.2995 337.43 50.9496 337.43 78.0571H337.432ZM294.555 40.2979C274.368 41.587 279.796 113.241 300.353 114.352C320.632 113.299 315.187 41.6162 294.555 40.2979Z" fill="#FFF9EB"/>
<path d="M342.835 62.6454V87.2066C342.835 99.0279 343.523 108.35 334.295 117.578H375.575C366.302 108.306 367.04 99.0046 367.04 87.2066V77.4445C379.381 31.3933 399.538 26.7587 407.031 33.152C411.242 36.3837 416.854 36.4129 421.398 33.8579C430.087 28.9754 430.116 15.8329 424.265 11.1137C421.982 9.27038 418.954 8.00163 415.512 8.12413C399.774 8.17954 376.665 31.9066 367.037 67.8371V39.5775H356.491C349.004 39.5745 342.919 45.6237 342.879 53.1108L342.826 62.6483L342.835 62.6454Z" fill="#FFF9EB"/>
<path d="M426.914 87.2038V37.5884C418.077 37.5884 406.751 46.5775 398.526 46.5775C401.837 49.888 402.706 54.8113 402.706 62.6425V87.2038C402.706 99.0251 403.394 108.347 394.166 117.575H435.446C426.173 108.3 426.914 98.9988 426.914 87.2009V87.2038Z" fill="#FFF9EB"/>
<path d="M489.502 72.7693C489.502 54.1026 471.564 35.8822 459.346 42.506C453.23 45.8193 459.726 53.8576 465.617 56.051C445.603 60.2072 436.754 58.9822 437.212 54.8785C438.939 39.4435 513.693 16.8685 513.693 76.9693C513.693 82.6597 513.681 88.3472 513.681 94.0347C513.786 102.776 514.775 110.211 522.148 117.581H480.492C484.357 115.213 487.411 110.493 488.286 106.148C484.654 112.439 479.877 117.572 470.404 117.572C449.602 117.572 435.441 105.348 435.441 85.0601C436.64 48.5726 481.688 55.6076 489.499 72.7664L489.502 72.7693ZM489.694 82.0472C486.76 65.0547 459.676 56.1618 459.454 86.8539C459.291 109.811 468.966 116.878 477.415 113.48C483.919 110.864 489.694 102.534 489.694 87.4751V82.0472Z" fill="#FFF9EB"/>
</g>
<defs>
<clipPath id="clip0_364_1757">
<rect width="560" height="167.072" fill="white"/>
</clipPath>
</defs>
</svg>
