<svg width="130" height="32" viewBox="0 0 130 32" fill="none" xmlns="http://www.w3.org/2000/svg">
<path d="M17.9706 31.4144C17.9565 31.6024 17.9241 31.785 17.8723 31.9589H28.2998C25.3829 29.9203 24.3544 27.1394 23.22 23.8098L16.3987 3.78122C15.7883 1.98784 15.3637 1.06523 16.7411 0.18042C16.8233 0.127483 16.7854 0 16.6882 0H12.208C10.7971 0 9.7286 1.08467 9.60112 2.3584L4.97723 15.5873C4.94265 15.6856 5.04961 15.7742 5.14036 15.7223L7.48904 14.3611C7.62084 14.2855 7.71915 14.1634 7.76669 14.0197L10.5432 5.6405L13.1566 12.8745C7.59491 15.234 0.756301 18.7473 0.0681184 23.8498C-0.307843 26.6328 0.872984 29.5033 3.59762 30.9758C4.6488 31.544 5.82638 31.8357 7.02125 31.8476L7.77101 31.8552C7.76236 31.8336 7.77641 31.8044 7.80666 31.8055C11.307 31.9891 13.6816 31.3204 14.3287 27.8049C14.5405 26.6501 14.4649 25.4811 13.7119 24.7227C13.6362 24.646 13.553 24.5747 13.4634 24.5066C11.872 23.3161 9.75345 24.3727 9.63569 26.2158C9.61516 26.5269 9.65838 26.8316 9.75237 27.1146C10.0365 27.967 10.7927 28.6293 11.7305 28.7481C11.7813 28.7546 11.832 28.7589 11.8828 28.7621C12.5343 28.8043 13.1436 28.5839 13.6038 28.1917C11.9087 31.328 7.42314 31.5365 5.58114 28.6379C5.24191 28.1042 4.99235 27.4668 4.86595 26.7224C4.77952 26.2136 4.75035 25.654 4.79033 25.0457C4.79897 24.9074 4.81193 24.7692 4.82922 24.6309C4.91781 23.9179 5.11119 23.2081 5.39316 22.5156C5.9355 21.1835 6.80085 19.9173 7.8596 18.824C9.5417 17.0846 11.711 15.7796 13.8426 15.3334C13.915 15.3183 13.9873 15.3626 14.0057 15.4339L14.1624 15.678C16.8946 19.954 18.1845 24.9928 17.8431 30.0553C17.9609 30.5047 18.003 30.9498 17.9749 31.3885C17.9749 31.3971 17.9738 31.4058 17.9727 31.4144H17.9706Z" fill="#FFF9EB"/>
<path d="M41.3293 24.9258C40.5125 29.6588 33.6404 32.498 33.1694 24.3446V10.4924C30.798 10.4924 27.7579 12.9048 25.5508 12.9048C26.4388 13.7939 26.6722 15.1163 26.6722 17.2165C26.6668 19.7186 26.6733 22.2217 26.6452 24.7238C26.6452 32.4883 35.8109 34.0137 39.7887 29.2483C40.4877 28.411 41.2007 27.2821 41.3282 26.6533V28.3052C41.3282 30.3222 42.9628 31.9568 44.9787 31.9578H47.8254C47.8254 28.6487 47.8254 18.6317 47.8254 13.3283H44.9798C42.9628 13.3283 41.3271 14.9639 41.3271 16.9809V24.9258H41.3293Z" fill="#FFF9EB"/>
<path d="M50.7868 30.4399C50.8289 25.883 50.9899 16.0313 50.7123 13.1954C50.521 12.5115 50.0597 11.993 49.3208 11.9184C48.4813 11.8331 48.4889 10.5183 49.3391 10.487H49.6568C51.865 10.487 55.0963 7.89954 57.4688 7.89954C57.2138 8.3414 57.1911 9.05875 57.2916 9.44012C57.459 10.0775 58.2056 10.487 58.9532 10.487H59.838C60.7876 10.487 60.7865 11.9228 59.838 11.9228H57.2743V23.8077C57.2743 26.9742 57.1771 30.2768 60.0897 31.9589H52.2917C51.4555 31.9589 50.7792 31.2772 50.7879 30.441L50.7868 30.4399Z" fill="#FFF9EB"/>
<path d="M80.3997 21.352C80.3997 28.0167 76.6617 31.9589 69.836 31.9589C63.0104 31.9589 58.7852 28.1042 58.7852 21.352C58.7852 14.2163 62.7814 10.4135 69.593 10.4934C76.4046 10.4135 80.3997 14.0769 80.3997 21.352ZM68.8929 11.2183C63.4749 11.564 64.9323 30.7953 70.4497 31.0935C75.8925 30.8105 74.4308 11.5716 68.8929 11.2183Z" fill="#FFF9EB"/>
<path d="M81.849 17.2165V23.8077C81.849 26.9807 82.0338 29.4817 79.5576 31.9589H90.6366C88.1475 29.4698 88.3463 26.9742 88.3463 23.8077V21.1878C91.6586 8.82863 97.0679 7.58514 99.0795 9.30074C100.21 10.1683 101.716 10.1758 102.935 9.4898C105.267 8.17933 105.275 4.65199 103.705 3.38582C103.092 2.89102 102.28 2.55072 101.356 2.58313C97.1317 2.59825 90.9305 8.96583 88.3463 18.609V11.025H85.5157C83.5063 11.025 81.8739 12.6477 81.8631 14.6571L81.849 17.2165Z" fill="#FFF9EB"/>
<path d="M104.415 23.8077V10.4924C102.043 10.4924 99.0031 12.9048 96.796 12.9048C97.684 13.7928 97.9174 15.1152 97.9174 17.2165V23.8077C97.9174 26.9807 98.1021 29.4817 95.626 31.9589H106.705C104.216 29.4698 104.415 26.9731 104.415 23.8077Z" fill="#FFF9EB"/>
<path d="M121.213 19.9325C121.213 14.9229 116.399 10.0332 113.12 11.8104C111.479 12.6995 113.222 14.857 114.803 15.4458C109.432 16.5607 107.057 16.2333 107.18 15.1303C107.644 10.9883 127.707 4.92858 127.707 21.0593C127.707 22.5869 127.704 24.1134 127.704 25.6399C127.732 27.9865 127.997 29.9819 129.976 31.96H118.796C119.833 31.3247 120.653 30.0575 120.888 28.8918C119.913 30.5804 118.631 31.9578 116.089 31.9578C110.506 31.9578 106.705 28.6768 106.705 23.2329C107.026 13.4406 119.116 15.3291 121.213 19.9335V19.9325ZM121.264 22.4227C120.476 17.8625 113.208 15.4749 113.148 23.7126C113.104 29.8738 115.701 31.7709 117.969 30.858C119.714 30.1558 121.264 27.9206 121.264 23.8779V22.4216V22.4227Z" fill="#FFF9EB"/>
</svg>
