<svg width="16" height="16" viewBox="0 0 16 16" fill="none" xmlns="http://www.w3.org/2000/svg">
<rect width="16" height="16" rx="2" fill="#4D111C"/>
<path d="M14.0635 5.21891C13.8244 6.99224 11.4836 8.22232 9.53667 9.05565L10.1198 10.7675C10.2116 11.037 10.3014 11.2964 10.3979 11.5447L11.3426 8.69284C11.3595 8.64202 11.3944 8.59906 11.4408 8.57224L12.2712 8.09121C12.3032 8.07269 12.3408 8.10395 12.3287 8.13876L10.8219 12.4496C11.086 12.9032 11.4253 13.305 11.9152 13.6474H8.1897C8.15533 13.6474 8.1417 13.6023 8.17059 13.5836C8.21282 13.5567 8.25015 13.5294 8.28304 13.5019C8.38778 13.2971 8.45193 13.0893 8.4703 12.8796C8.43563 12.7198 8.36778 12.5346 8.29163 12.3111L6.61045 7.37491C5.92733 7.59165 5.25667 8.07047 4.746 8.67447C4.19963 9.32069 3.83608 10.1102 3.83608 10.8754C3.83608 13.057 6.24704 13.2139 6.91341 11.7573C6.76496 11.902 6.5623 11.9911 6.33889 11.9911C6.32156 11.9911 6.30422 11.9906 6.28674 11.9894C5.85711 11.9631 5.51593 11.5991 5.51563 11.1685C5.51519 10.5343 6.21444 10.1247 6.78393 10.4974C7.13622 10.7284 7.20393 11.1674 7.15252 11.6081C6.9857 13.0293 5.53252 13.8472 4.0937 13.605C2.49 13.3351 1.76822 12.0331 1.93711 10.7814C2.17622 9.00809 4.51696 7.77802 6.46393 6.94469L5.88082 5.23269C5.78911 4.96321 5.69919 4.7038 5.60274 4.4555L4.65785 7.30706C4.64111 7.35802 4.606 7.40084 4.55963 7.4278L3.72926 7.90884C3.69741 7.92735 3.65963 7.89609 3.67193 7.86128L5.17859 3.55046C4.91459 3.09684 4.57533 2.69506 4.08526 2.35254H7.81074C7.84526 2.35254 7.85874 2.39758 7.82985 2.41624C7.78763 2.44321 7.7503 2.47046 7.71741 2.49787C7.61267 2.70261 7.54852 2.91061 7.53015 3.12009C7.56482 3.27995 7.63267 3.46513 7.70882 3.68869L9.39 8.62483C10.0733 8.40809 10.7438 7.92928 11.2544 7.32528C11.8008 6.67906 12.1642 5.88958 12.1642 5.12439C12.1642 2.94276 9.75341 2.78587 9.08704 4.24247C9.23548 4.09772 9.43815 4.00869 9.66156 4.00869C9.67874 4.00869 9.69607 4.00913 9.7137 4.01032C10.1433 4.03669 10.4845 4.40069 10.4848 4.83121C10.4853 5.46543 9.78615 5.87506 9.21652 5.50232C8.86437 5.27135 8.79652 4.83239 8.84807 4.39165C9.01474 2.97047 10.4679 2.15254 11.9069 2.39476C13.5104 2.66469 14.2324 3.96661 14.0635 5.21832V5.21891Z" fill="#D89B4E"/>
</svg>
